<?xml version="1.0" encoding="iso-8859-1"?>
<!-- Generator: Adobe Illustrator 19.0.0, SVG Export Plug-In . SVG Version: 6.00 Build 0)  -->
<svg version="1.1" id="Layer_1" xmlns="http://www.w3.org/2000/svg" xmlns:xlink="http://www.w3.org/1999/xlink" x="0px" y="0px"
	 viewBox="0 0 960 560" style="enable-background:new 0 0 960 560;" xml:space="preserve">
<g id="XMLID_1_">
	<g id="XMLID_6_">
		<path id="XMLID_31_" d="M-1.131,561.657c0-186.383,0-372.956,0-559.603c204.492,0,408.983,0,613.737,0
			c0,186.377,0,372.829,0,559.603C408.203,561.657,203.536,561.657-1.131,561.657z M128.708,267.426
			c-7.091-3.845-14.182-7.689-21.306-11.552c-9.341,8.32-10.679,22.542,1.877,31.527c10.173,7.28,23.481,14.356,37.24,17.053
			c64.228,12.592,126.377,7.997,185.445-14.328c69.79-26.378,71.112-90.509,41.619-121.987
			c-15.956-17.03-51.665-28.374-74.619-24.478c16.716,10.638,36.494,20.571,51.183,33.298c15.507,13.436,19.85,30.142,11.274,47.674
			c-3.433-0.255-5.744-0.444-8.06-0.595c-25.14-1.646-50.257-3.554-75.447-4.661c-4.104-0.18-11.479,2.728-12.229,5.009
			c-1.808,5.493-0.586,11.46-0.586,16.556c27.5,2.397,52.183,4.548,76.865,6.699c0.612,1.629,1.225,3.258,1.837,4.887
			c-13.004,5.479-25.345,11.978-39.137,16.243c-40.463,12.514-83.321,12.687-126.13,8.387c-17.107-1.718-33.55-6.584-50.319-10.025
			c9.985,3.559,13.421-4.062,20.319-5.608c21.621-4.848,43.5-9.147,65.117-14.002c4.888-1.098,12.315-3.126,13.034-5.518
			c1.859-6.18,0.623-12.802,0.623-19.22c-23.078-0.317-61.681,7.113-92.159,17.521C108.919,249.265,107.951,253.337,128.708,267.426
			z M354.639,544.884c0.75,0.611,1.501,1.222,2.251,1.833c2.628-0.334,5.733-0.158,7.812-1.081
			c20.409-9.064,43.369-16.391,60.407-27.878c45.589-30.735,80.029-67.175,101.21-108.882
			c29.665-58.41,12.154-111.522-51.003-147.13c-21.354-12.039-48.371-19.336-73.06-28.466c-2.241-0.829-6.391,0.796-9.654,1.282
			c1.375,2.447,1.828,5.599,4.351,7.167c3.402,2.113,8.548,2.823,12.68,4.456c11.375,4.495,22.611,9.158,33.902,13.754
			c-14.096-3.749-26.633-9.214-39.843-13.748c-3.9-1.339-9.698-0.049-14.626,0.036c2.993,2.809,5.273,6.266,9.134,8.285
			c7.012,3.667,14.964,6.477,22.524,9.646c-13.128-1.259-22.328-9.858-37.084-7.472c3.137,3.277,7.155,5.234,11.328,7.02
			c67.652,28.947,85.048,71.4,49.236,120.517c-23.982,32.893-59.161,59.743-97.627,84.639
			c-19.76,12.789-40.879,24.579-61.253,36.742c12.456,15.962,13.448,16.528,33.895,6.46c23.066-11.358,45.13-23.685,67.629-35.59
			c0.783,0.5,1.567,1,2.35,1.5c-25.37,18.102-50.74,36.204-76.11,54.306c-0.273,1.048,3.549,3.995,8.315,5.642
			c14.516,5.018,27.627,2.943,42.077-7.791c37.557-27.898,74.508-56.184,105.565-79.674
			C444.032,483.558,400.679,514.948,354.639,544.884z M269.484,141.058c53.042-2.599,101.997,3.921,146.553,22.718
			c44.424,18.741,77.241,45.215,103.413,76.79c11.503-16.54,11.674-26.573-2.093-38.885c-13.207-11.811-28.52-22.502-42.908-33.685
			c0.848-0.553,1.696-1.106,2.544-1.659c15.137,11.527,30.409,22.972,45.346,34.621c6.046,4.716,7.667,13.292,22.059,9.948
			c2.404-0.558,7.393,3.554,10.777,5.802c3.389,2.25,6.265,4.868,9.365,7.325c-25.188-57.608-121.705-105.074-261.195-101.938
			c-10.396,0.234-20.746,1.435-31.118,2.186c0.056,0.965,0.111,1.93,0.167,2.896c2.89,0.524,5.779,1.049,9.241,1.677
			c-1.703,0.461-3.572,0.553-4.078,1.174C275.025,133.136,272.85,136.382,269.484,141.058z M228.219,139.235
			c-1.671,1.96-5.613,4.583-4.891,6.239c0.915,2.099,5.324,4.33,8.757,4.855c5.466,0.836,11.373,0.418,17.088,0.339
			c14.447-0.199,18.312-3.903,14.665-13.696c-0.724-1.945-2.204-4.409-1.153-5.903c4.616-6.556,1.033-9.872-6.388-11.149
			c29.256-32.507-3.553-62.154-6.598-92.96c-1.8,0.021-3.601,0.041-5.401,0.062c0,30.918,0,61.836,0,90.163
			c-9.273,3.441-14.97,5.555-20.667,7.669c3.023,1.907,6.046,3.815,7.696,4.856c-1.54,0.736-5.933,1.844-7.44,3.94
			C223.029,134.84,226.891,137.646,228.219,139.235z M248.207,255.461c1.118,0.034,2.236,0.069,3.355,0.103
			c0-18.292,0-36.584,0-54.876c-1.118,0-2.236,0-3.355,0C248.207,218.946,248.207,237.204,248.207,255.461z"/>
		<path id="XMLID_28_" style="fill:#FFFFFF;" d="M354.639,544.884c46.04-29.936,89.393-61.326,114.407-94.429
			c-31.057,23.49-68.007,51.777-105.565,79.674c-14.451,10.734-27.561,12.809-42.077,7.791c-4.766-1.648-8.589-4.594-8.315-5.642
			c25.37-18.102,50.74-36.204,76.11-54.306c-0.783-0.5-1.567-1-2.35-1.5c-22.5,11.905-44.563,24.232-67.629,35.59
			c-20.447,10.068-21.439,9.502-33.895-6.46c20.374-12.163,41.493-23.953,61.253-36.742c38.466-24.896,73.645-51.746,97.627-84.639
			c35.811-49.117,18.416-91.57-49.236-120.517c-4.173-1.785-8.191-3.743-11.328-7.02c14.756-2.386,23.955,6.213,37.084,7.472
			c-7.56-3.168-15.512-5.979-22.524-9.646c-3.861-2.019-6.141-5.477-9.134-8.285c4.928-0.085,10.726-1.375,14.626-0.036
			c13.209,4.534,25.747,9.999,39.843,13.748c-11.291-4.596-22.527-9.258-33.902-13.754c-4.132-1.633-9.278-2.343-12.68-4.456
			c-2.523-1.567-2.976-4.72-4.351-7.167c3.263-0.485,7.412-2.11,9.654-1.282c24.689,9.13,51.706,16.427,73.06,28.466
			c63.158,35.608,80.668,88.72,51.003,147.13c-21.182,41.707-55.622,78.147-101.21,108.882
			c-17.038,11.487-39.999,18.814-60.407,27.878c-2.078,0.923-5.183,0.747-7.812,1.081
			C356.14,546.106,355.389,545.495,354.639,544.884z M488.855,306.148c7.591,18.099,10.785,36.679,3.43,55.029
			c-7.26,18.113-17.13,35.728-25.854,53.562C492.228,380.31,511.893,345.266,488.855,306.148z"/>
		<path id="XMLID_27_" style="fill:#FFFFFF;" d="M128.24,267.141c16.745,3.433,33.188,8.299,50.295,10.017
			c42.809,4.3,85.667,4.127,126.13-8.387c13.793-4.266,26.133-10.765,39.137-16.243c-0.612-1.629-1.225-3.258-1.837-4.887
			c-24.682-2.151-49.365-4.302-76.865-6.699c0-5.096-1.222-11.063,0.586-16.556c0.751-2.281,8.126-5.189,12.229-5.009
			c25.19,1.107,50.307,3.014,75.447,4.661c2.316,0.152,4.627,0.341,8.06,0.595c8.576-17.532,4.233-34.238-11.274-47.674
			c-14.689-12.727-34.467-22.66-51.183-33.298c22.954-3.896,58.663,7.448,74.619,24.478c29.493,31.478,28.171,95.608-41.619,121.987
			c-59.068,22.326-121.217,26.92-185.445,14.328c-13.759-2.698-27.067-9.773-37.24-17.053c-12.556-8.985-11.217-23.207-1.877-31.527
			c7.124,3.862,14.215,7.707,21.306,11.552L128.24,267.141z"/>
		<path id="XMLID_26_" style="fill:#FFFFFF;" d="M269.484,141.058c3.365-4.676,5.541-7.922,8.074-11.03
			c0.506-0.621,2.376-0.713,4.078-1.174c-3.462-0.628-6.352-1.153-9.241-1.677c-0.056-0.965-0.111-1.93-0.167-2.896
			c10.371-0.751,20.722-1.953,31.118-2.186c139.49-3.136,236.007,44.33,261.195,101.938c-3.101-2.457-5.977-5.075-9.365-7.325
			c-3.385-2.248-8.374-6.36-10.777-5.802c-14.393,3.344-16.013-5.233-22.059-9.948c-14.936-11.649-30.208-23.094-45.346-34.621
			c-0.848,0.553-1.696,1.106-2.544,1.659c14.388,11.183,29.701,21.874,42.908,33.685c13.767,12.312,13.597,22.346,2.093,38.885
			c-26.172-31.575-58.988-58.049-103.413-76.79C371.481,144.98,322.526,138.459,269.484,141.058z"/>
		<path id="XMLID_25_" style="fill:#FFFFFF;" d="M228.219,139.235c-1.328-1.589-5.19-4.395-4.333-5.586
			c1.507-2.095,5.899-3.204,7.44-3.94c-1.65-1.041-4.673-2.948-7.696-4.856c5.697-2.114,11.393-4.228,20.667-7.669
			c0-28.327,0-59.245,0-90.163c1.8-0.021,3.601-0.041,5.401-0.062c3.045,30.806,35.855,60.453,6.598,92.96
			c7.421,1.277,11.004,4.593,6.388,11.149c-1.052,1.494,0.429,3.958,1.153,5.903c3.647,9.793-0.218,13.497-14.665,13.696
			c-5.715,0.079-11.622,0.497-17.088-0.339c-3.433-0.525-7.842-2.756-8.757-4.855C222.606,143.817,226.548,141.194,228.219,139.235z
			"/>
		<path id="XMLID_24_" style="fill:#FFFFFF;" d="M128.708,267.426c-20.757-14.088-19.79-18.161,6.443-27.119
			c30.478-10.408,69.081-17.839,92.159-17.521c0,6.418,1.236,13.041-0.623,19.22c-0.719,2.392-8.146,4.42-13.034,5.518
			c-21.617,4.855-43.497,9.154-65.117,14.002c-6.898,1.547-10.335,9.167-20.308,5.612
			C128.24,267.141,128.708,267.426,128.708,267.426z"/>
		<path id="XMLID_23_" style="fill:#FFFFFF;" d="M248.207,255.461c0-18.258,0-36.515,0-54.773c1.118,0,2.236,0,3.355,0
			c0,18.292,0,36.584,0,54.876C250.444,255.53,249.326,255.496,248.207,255.461z"/>
		<path id="XMLID_7_" d="M488.855,306.148c23.039,39.118,3.373,74.162-22.425,108.591c8.725-17.834,18.594-35.449,25.854-53.562
			C499.64,342.828,496.446,324.247,488.855,306.148z"/>
	</g>
</g>
</svg>
