<?xml version="1.0" encoding="iso-8859-1"?>
<!-- Generator: Adobe Illustrator 19.0.0, SVG Export Plug-In . SVG Version: 6.00 Build 0)  -->
<svg version="1.1" id="Layer_1" xmlns="http://www.w3.org/2000/svg" xmlns:xlink="http://www.w3.org/1999/xlink" x="0px" y="0px"
	 viewBox="0 0 960 560" style="enable-background:new 0 0 960 560;" xml:space="preserve">
<g id="XMLID_1_">
	<g id="XMLID_6_">
		<path id="XMLID_37_"  fill="transparent" width="100px" height="100px" d="M56.417,561.4c0-186.666,0-373.333,0-560c283.333,0,566.666,0,850,0c0,186.666,0,373.333,0,560
			C623.083,561.4,339.75,561.4,56.417,561.4z M491.73,467.724c0.333,0.52,0.667,1.04,1,1.559c1.083-0.146,2.39,0.045,3.215-0.49
			c10.61-6.886,22.637-12.413,31.42-21.124c22.539-22.355,39.708-48.583,49.737-78.841c17.478-52.732-6.072-100.723-58.655-120.015
			c-1.545-0.567-3.108-1.338-4.701-1.441c-1.164-0.075-3.218,0.573-3.41,1.284c-0.353,1.311-0.14,3.485,0.756,4.258
			c1.723,1.485,4.152,2.136,6.176,3.32c7.945,4.65,15.847,9.373,23.765,14.069c-0.33,0.518-0.661,1.035-0.991,1.553
			c-0.899-0.649-1.756-1.366-2.703-1.936c-7.848-4.721-15.638-9.547-23.651-13.977c-1.263-0.698-3.563,0.434-5.384,0.72
			c0.789,1.653,1.279,3.567,2.457,4.878c1.027,1.144,2.843,1.584,4.288,2.374c12.108,6.623,21.91,14.872,25.641,21.562
			c-21.481-18.946-28.516-23.191-35.871-20.717c5.712,4.007,11.197,7.404,16.166,11.422c17.211,13.915,27.612,31.303,22.262,53.764
			c-2.969,12.466-7.814,25.055-14.497,35.987c-16.787,27.459-40.157,49.282-65.579,68.969c-3.816,2.955-7.513,5.107-3.083,11.026
			c4.479,5.984,7.821,2.795,11.753,0.308c2.583-1.633,5.209-3.233,7.614-5.101c9.201-7.15,18.32-14.404,27.469-21.619
			c0.423,0.428,0.845,0.857,1.268,1.285c-12.42,12.711-24.84,25.421-37.782,38.667c3.638,6.835,14.654,8.273,23.043,0.264
			c10.178-9.716,20.165-19.684,29.532-30.156c9.35-10.453,17.831-21.664,26.693-32.543
			C535.413,424.598,514.319,446.752,491.73,467.724z M370.111,262.674c-7.404,8.744-4.793,22.616,6.206,29.561
			c5.452,3.443,11.771,6.177,18.074,7.561c24.526,5.386,48.799,3.666,72.219-5.364c25.361-9.779,41.497-27.005,42.757-55.183
			c0.752-16.811-2.074-32.541-14.951-44.954c-8.074-7.784-23.901-12.465-32.011-9.353c5.663,3.878,11.495,7.347,16.719,11.554
			c12.299,9.905,18.389,22.763,17.325,38.608c-0.301,4.479-1.38,6.885-7.421,5.919c-11.82-1.891-23.875-2.34-35.831-3.409
			c-4.506-0.403-6.637,1.441-6.181,6.032c0.333,3.346,0.51,6.707,0.709,9.403c13.263,1.693,25.483,3.253,39.588,5.053
			c-8.464,9.802-17.665,13.94-27.466,17.308c-20.692,7.112-41.797,5.827-62.698,2.166
			C386.869,275.776,375.301,274.404,370.111,262.674z M448.876,182.326c57.752-3.503,96.197,23.951,124.527,71.397
			c2.09-9.934,6.672-18.167-0.221-26.341c-7.432-8.813-15.115-17.419-22.689-26.116c8.138,6.547,15.315,14.04,22.358,21.653
			c3.578,3.868,4.412,11.166,12.673,9.032c1.172-0.303,3.267,2.347,4.732,3.826c1.689,1.705,3.154,3.628,6.003,6.964
			c-13.198-42.552-58.742-70.724-113.408-73.584c-10.713-0.56-21.746-1.651-32.265,3.332c1.489,0.381,2.979,0.761,3.591,0.918
			C452.751,175.809,451.177,178.457,448.876,182.326z M428.664,239.462c-18.456,2.215-34.974,7.062-50.215,15.674
			c-7.93,4.481-7.836,9.668-0.174,14.761c1.706,1.134,3.705,1.837,4.111,2.034c5.863-3.084,10.296-6.202,15.232-7.832
			c7.981-2.635,16.364-4.063,24.423-6.498c2.466-0.745,5.789-2.769,6.329-4.822C429.387,248.918,428.664,244.61,428.664,239.462z
			 M438.638,101.153c-0.664,0.085-1.328,0.169-1.992,0.254c0,20.423-0.059,40.847,0.134,61.268c0.013,1.341,1.928,3.736,2.993,3.755
			c1.744,0.031,4.703-1.146,5.076-2.411c1.897-6.434,5.168-13.378,4.183-19.555C446.702,129.85,442.239,115.569,438.638,101.153z
			 M428.95,181.355c-0.726,1.086-2.783,2.868-2.467,4.007c0.42,1.512,2.548,3.285,4.197,3.585c3.197,0.583,6.572,0.177,9.871,0.253
			c4.931,0.114,6.922-2.068,5.899-6.945c-0.47-2.24-1.543-4.973-0.719-6.745c2.512-5.407,0.348-7.469-4.754-7.83
			c-3.041-0.215-6.173-0.182-9.166,0.317c-1.804,0.301-3.418,1.709-5.118,2.62c1.552,1.436,3.103,2.871,4.031,3.73
			c-0.828,0.516-2.982,1.225-3.887,2.689C426.38,177.778,428.178,179.881,428.95,181.355z M440.811,224.782
			c-0.569-0.179-1.139-0.358-1.708-0.537c0,13.082,0,26.165,0,39.247c0.569-0.003,1.139-0.005,1.708-0.008
			C440.811,250.583,440.811,237.683,440.811,224.782z"/>
		<path id="XMLID_34_" style="fill:#000000;" d="M491.73,467.724c22.589-20.971,43.683-43.126,57.948-70.691
			c-8.862,10.879-17.343,22.09-26.693,32.543c-9.367,10.472-19.354,20.441-29.532,30.156c-8.389,8.008-19.405,6.57-23.043-0.264
			c12.942-13.245,25.362-25.956,37.782-38.667c-0.423-0.428-0.845-0.857-1.268-1.285c-9.149,7.215-18.268,14.468-27.469,21.619
			c-2.405,1.869-5.031,3.468-7.614,5.101c-3.932,2.487-7.274,5.676-11.753-0.308c-4.43-5.918-0.733-8.07,3.083-11.026
			c25.422-19.687,48.792-41.51,65.579-68.969c6.683-10.932,11.528-23.521,14.497-35.987c5.35-22.461-5.051-39.85-22.262-53.764
			c-4.97-4.018-10.454-7.415-16.166-11.422c7.355-2.474,14.39,1.77,35.871,20.717c-3.731-6.691-13.533-14.94-25.641-21.562
			c-1.445-0.79-3.261-1.231-4.288-2.374c-1.178-1.311-1.668-3.226-2.457-4.878c1.821-0.286,4.121-1.419,5.384-0.72
			c8.014,4.43,15.803,9.257,23.651,13.977c0.947,0.57,1.804,1.287,2.703,1.936c0.33-0.518,0.661-1.035,0.991-1.553
			c-7.918-4.696-15.82-9.419-23.765-14.069c-2.024-1.184-4.453-1.836-6.176-3.32c-0.897-0.773-1.109-2.947-0.756-4.258
			c0.191-0.711,2.246-1.359,3.41-1.284c1.593,0.103,3.156,0.874,4.701,1.441c52.583,19.293,76.133,67.283,58.655,120.015
			c-10.029,30.259-27.198,56.486-49.737,78.841c-8.783,8.712-20.81,14.239-31.42,21.124c-0.825,0.535-2.132,0.344-3.215,0.49
			C492.397,468.763,492.063,468.243,491.73,467.724z M546.627,375.807c12.846-24.217,22.317-49.031,10.841-76.741
			C567.464,326.583,556.161,351.004,546.627,375.807z"/>
		<path id="XMLID_33_" style="fill:#000000;" d="M370.111,262.674c5.189,11.73,16.757,13.102,27.038,14.902
			c20.902,3.66,42.006,4.945,62.698-2.166c9.801-3.368,19.002-7.506,27.466-17.308c-14.105-1.8-26.325-3.36-39.588-5.053
			c-0.198-2.697-0.376-6.058-0.709-9.403c-0.457-4.591,1.675-6.435,6.181-6.032c11.956,1.069,24.011,1.518,35.831,3.409
			c6.041,0.966,7.12-1.44,7.421-5.919c1.064-15.845-5.026-28.703-17.325-38.608c-5.224-4.207-11.056-7.676-16.719-11.554
			c8.11-3.112,23.936,1.569,32.011,9.353c12.877,12.414,15.703,28.144,14.951,44.954c-1.26,28.178-17.396,45.404-42.757,55.183
			c-23.42,9.03-47.693,10.75-72.219,5.364c-6.302-1.384-12.622-4.118-18.074-7.561C365.318,285.29,362.707,271.418,370.111,262.674z
			"/>
		<path id="XMLID_32_" style="fill:#000000;" d="M448.876,182.326c2.301-3.87,3.874-6.518,5.302-8.919
			c-0.612-0.156-2.102-0.537-3.591-0.918c10.52-4.983,21.553-3.893,32.265-3.332c54.666,2.86,100.209,31.031,113.408,73.584
			c-2.85-3.335-4.314-5.258-6.003-6.964c-1.465-1.479-3.56-4.129-4.732-3.826c-8.261,2.134-9.095-5.164-12.673-9.032
			c-7.043-7.613-14.22-15.106-22.358-21.653c7.574,8.697,15.257,17.303,22.689,26.116c6.893,8.174,2.311,16.407,0.221,26.341
			C545.073,206.278,506.628,178.823,448.876,182.326z"/>
		<path id="XMLID_31_" style="fill:#000000;" d="M428.664,239.462c0,5.148,0.723,9.456-0.293,13.317
			c-0.54,2.053-3.863,4.077-6.329,4.822c-8.059,2.435-16.442,3.863-24.423,6.498c-4.936,1.63-9.368,4.748-15.232,7.832
			c-0.407-0.197-2.406-0.9-4.111-2.034c-7.663-5.093-7.756-10.28,0.174-14.761C393.691,246.524,410.208,241.677,428.664,239.462z"/>
		<path id="XMLID_30_" style="fill:#000000;" d="M438.638,101.153c3.601,14.416,8.065,28.697,10.395,43.311
			c0.985,6.177-2.286,13.121-4.183,19.555c-0.373,1.265-3.332,2.442-5.076,2.411c-1.065-0.019-2.981-2.413-2.993-3.755
			c-0.193-20.421-0.134-40.845-0.134-61.268C437.31,101.322,437.974,101.238,438.638,101.153z"/>
		<path id="XMLID_29_" style="fill:#000000;" d="M428.95,181.355c-0.771-1.474-2.57-3.578-2.112-4.319
			c0.904-1.463,3.058-2.172,3.887-2.689c-0.928-0.859-2.479-2.294-4.031-3.73c1.699-0.911,3.314-2.32,5.118-2.62
			c2.993-0.499,6.125-0.532,9.166-0.317c5.102,0.361,7.266,2.422,4.754,7.83c-0.824,1.773,0.25,4.506,0.719,6.745
			c1.023,4.877-0.968,7.059-5.899,6.945c-3.299-0.077-6.675,0.33-9.871-0.253c-1.648-0.301-3.777-2.073-4.197-3.585
			C426.166,184.223,428.223,182.441,428.95,181.355z"/>
		<path id="XMLID_28_" style="fill:#000000;" d="M440.811,224.782c0,12.901,0,25.801,0,38.702c-0.569,0.003-1.139,0.005-1.708,0.008
			c0-13.082,0-26.165,0-39.247C439.673,224.424,440.242,224.603,440.811,224.782z"/>
		<path id="XMLID_27_" d="M546.627,375.807c9.534-24.803,20.837-49.224,10.841-76.741
			C568.944,326.776,559.473,351.59,546.627,375.807z"/>
	</g>
</g>
</svg>
